<svg width="375" height="84" viewBox="0 0 375 84" fill="none" xmlns="http://www.w3.org/2000/svg">
<path d="M375 81.9265C361.456 83.0323 325.191 83.957 288.48 78.8104C242.591 72.377 203.155 64.7375 137.906 68.1552C72.6578 71.5729 48.5182 75.7947 9.99572e-06 71.975" stroke="#BF9D7D" stroke-width="0.5"/>
<path d="M375 81.9265C361.456 83.0323 325.191 83.957 288.48 78.8104C242.591 72.377 203.155 64.7375 137.906 68.1552C72.6578 71.5729 48.5182 75.7947 9.99572e-06 71.975" stroke="black" stroke-opacity="0.2" stroke-width="0.5"/>
<path d="M375 74.448C361.456 75.5537 325.191 76.4785 288.48 71.3319C242.591 64.8985 203.155 57.259 137.906 60.6767C72.6578 64.0944 48.5182 68.3162 9.99572e-06 64.4964" stroke="#BF9D7D" stroke-width="0.5"/>
<path d="M375 74.448C361.456 75.5537 325.191 76.4785 288.48 71.3319C242.591 64.8985 203.155 57.259 137.906 60.6767C72.6578 64.0944 48.5182 68.3162 9.99572e-06 64.4964" stroke="black" stroke-opacity="0.2" stroke-width="0.5"/>
<path d="M375 66.9695C361.456 68.0752 325.191 69 288.48 63.8533C242.591 57.42 203.155 49.7804 137.906 53.1981C72.6578 56.6159 48.5182 60.8377 9.99572e-06 57.0179" stroke="#BF9D7D" stroke-width="0.5"/>
<path d="M375 66.9695C361.456 68.0752 325.191 69 288.48 63.8533C242.591 57.42 203.155 49.7804 137.906 53.1981C72.6578 56.6159 48.5182 60.8377 9.99572e-06 57.0179" stroke="black" stroke-opacity="0.2" stroke-width="0.5"/>
<path d="M375 59.49C361.456 60.5957 325.191 61.5205 288.48 56.3739C242.591 49.9405 203.155 42.3009 137.906 45.7187C72.6578 49.1364 48.5182 53.3582 9.99572e-06 49.5384" stroke="#BF9D7D" stroke-width="0.5"/>
<path d="M375 59.49C361.456 60.5957 325.191 61.5205 288.48 56.3739C242.591 49.9405 203.155 42.3009 137.906 45.7187C72.6578 49.1364 48.5182 53.3582 9.99572e-06 49.5384" stroke="black" stroke-opacity="0.2" stroke-width="0.5"/>
<path d="M375 52.0105C361.456 53.1162 325.191 54.041 288.48 48.8944C242.591 42.461 203.155 34.8215 137.906 38.2392C72.6578 41.6569 48.5182 45.8787 9.99572e-06 42.0589" stroke="#BF9D7D" stroke-width="0.5"/>
<path d="M375 52.0105C361.456 53.1162 325.191 54.041 288.48 48.8944C242.591 42.461 203.155 34.8215 137.906 38.2392C72.6578 41.6569 48.5182 45.8787 9.99572e-06 42.0589" stroke="black" stroke-opacity="0.2" stroke-width="0.5"/>
<path d="M375 44.532C361.456 45.6377 325.191 46.5625 288.48 41.4158C242.591 34.9825 203.155 27.3429 137.906 30.7606C72.6578 34.1784 48.5182 38.4002 9.99572e-06 34.5804" stroke="#BF9D7D" stroke-width="0.5"/>
<path d="M375 44.532C361.456 45.6377 325.191 46.5625 288.48 41.4158C242.591 34.9825 203.155 27.3429 137.906 30.7606C72.6578 34.1784 48.5182 38.4002 9.99572e-06 34.5804" stroke="black" stroke-opacity="0.2" stroke-width="0.5"/>
<path d="M375 37.0535C361.456 38.1592 325.191 39.084 288.48 33.9373C242.591 27.504 203.155 19.8644 137.906 23.2821C72.6578 26.6998 48.5182 30.9217 9.99572e-06 27.1019" stroke="#BF9D7D" stroke-width="0.5"/>
<path d="M375 37.0535C361.456 38.1592 325.191 39.084 288.48 33.9373C242.591 27.504 203.155 19.8644 137.906 23.2821C72.6578 26.6998 48.5182 30.9217 9.99572e-06 27.1019" stroke="black" stroke-opacity="0.2" stroke-width="0.5"/>
<path d="M375 29.574C361.456 30.6797 325.191 31.6045 288.48 26.4578C242.591 20.0245 203.155 12.3849 137.906 15.8026C72.6578 19.2203 48.5182 23.4422 9.99572e-06 19.6224" stroke="#BF9D7D" stroke-width="0.5"/>
<path d="M375 29.574C361.456 30.6797 325.191 31.6045 288.48 26.4578C242.591 20.0245 203.155 12.3849 137.906 15.8026C72.6578 19.2203 48.5182 23.4422 9.99572e-06 19.6224" stroke="black" stroke-opacity="0.2" stroke-width="0.5"/>
<path d="M375 22.0945C361.456 23.2002 325.191 24.125 288.48 18.9783C242.591 12.545 203.155 4.90544 137.906 8.32314C72.6578 11.7409 48.5182 15.9627 9.99572e-06 12.1429" stroke="#BF9D7D" stroke-width="0.5"/>
<path d="M375 22.0945C361.456 23.2002 325.191 24.125 288.48 18.9783C242.591 12.545 203.155 4.90544 137.906 8.32314C72.6578 11.7409 48.5182 15.9627 9.99572e-06 12.1429" stroke="black" stroke-opacity="0.2" stroke-width="0.5"/>
<path d="M375 14.616C361.456 15.7217 325.191 16.6465 288.48 11.4998C242.591 5.0665 203.155 -2.57308 137.906 0.844628C72.6578 4.26234 48.5182 8.4842 9.99572e-06 4.66441" stroke="#BF9D7D" stroke-width="0.5"/>
<path d="M375 14.616C361.456 15.7217 325.191 16.6465 288.48 11.4998C242.591 5.0665 203.155 -2.57308 137.906 0.844628C72.6578 4.26234 48.5182 8.4842 9.99572e-06 4.66441" stroke="black" stroke-opacity="0.2" stroke-width="0.5"/>
</svg>
