<svg width="1060" height="187" viewBox="0 0 1060 187" fill="none" xmlns="http://www.w3.org/2000/svg">
<path d="M1218.15 182.834C1174.15 188.495 1056.35 193.23 937.097 166.879C788.031 133.94 659.927 94.8258 447.974 112.324C236.021 129.823 157.606 151.439 -0.00012207 131.882" stroke="#BF9D7D" stroke-opacity="0.4"/>
<path d="M1218.15 182.834C1174.15 188.495 1056.35 193.23 937.097 166.879C788.031 133.94 659.927 94.8258 447.974 112.324C236.021 129.823 157.606 151.439 -0.00012207 131.882" stroke="black" stroke-opacity="0.2"/>
<path d="M1218.15 170.834C1174.15 176.495 1056.35 181.23 937.097 154.879C788.031 121.94 659.927 82.8258 447.974 100.324C236.021 117.823 157.606 139.439 -0.00012207 119.882" stroke="#BF9D7D" stroke-opacity="0.4"/>
<path d="M1218.15 170.834C1174.15 176.495 1056.35 181.23 937.097 154.879C788.031 121.94 659.927 82.8258 447.974 100.324C236.021 117.823 157.606 139.439 -0.00012207 119.882" stroke="black" stroke-opacity="0.2"/>
<path d="M1218.15 158.834C1174.15 164.495 1056.35 169.23 937.097 142.879C788.031 109.94 659.927 70.8258 447.974 88.3245C236.021 105.823 157.606 127.439 -0.00012207 107.882" stroke="#BF9D7D" stroke-opacity="0.4"/>
<path d="M1218.15 158.834C1174.15 164.495 1056.35 169.23 937.097 142.879C788.031 109.94 659.927 70.8258 447.974 88.3245C236.021 105.823 157.606 127.439 -0.00012207 107.882" stroke="black" stroke-opacity="0.2"/>
<path d="M1218.15 146.834C1174.15 152.495 1056.35 157.23 937.097 130.879C788.031 97.9405 659.927 58.8258 447.974 76.3245C236.021 93.8232 157.606 115.439 -0.00012207 95.8818" stroke="#BF9D7D" stroke-opacity="0.4"/>
<path d="M1218.15 146.834C1174.15 152.495 1056.35 157.23 937.097 130.879C788.031 97.9405 659.927 58.8258 447.974 76.3245C236.021 93.8232 157.606 115.439 -0.00012207 95.8818" stroke="black" stroke-opacity="0.2"/>
<path d="M1218.15 134.834C1174.15 140.495 1056.35 145.23 937.097 118.879C788.031 85.9405 659.927 46.8258 447.974 64.3245C236.021 81.8232 157.606 103.439 -0.00012207 83.8818" stroke="#BF9D7D" stroke-opacity="0.4"/>
<path d="M1218.15 134.834C1174.15 140.495 1056.35 145.23 937.097 118.879C788.031 85.9405 659.927 46.8258 447.974 64.3245C236.021 81.8232 157.606 103.439 -0.00012207 83.8818" stroke="black" stroke-opacity="0.2"/>
<path d="M1218.15 122.834C1174.15 128.495 1056.35 133.23 937.097 106.879C788.031 73.9405 659.927 34.8258 447.974 52.3245C236.021 69.8232 157.606 91.4391 -0.00012207 71.8818" stroke="#BF9D7D" stroke-opacity="0.4"/>
<path d="M1218.15 122.834C1174.15 128.495 1056.35 133.23 937.097 106.879C788.031 73.9405 659.927 34.8258 447.974 52.3245C236.021 69.8232 157.606 91.4391 -0.00012207 71.8818" stroke="black" stroke-opacity="0.2"/>
<path d="M1218.15 110.834C1174.15 116.495 1056.35 121.23 937.097 94.8791C788.031 61.9405 659.927 22.8258 447.974 40.3245C236.021 57.8232 157.606 79.4391 -0.00012207 59.8818" stroke="#BF9D7D" stroke-opacity="0.4"/>
<path d="M1218.15 110.834C1174.15 116.495 1056.35 121.23 937.097 94.8791C788.031 61.9405 659.927 22.8258 447.974 40.3245C236.021 57.8232 157.606 79.4391 -0.00012207 59.8818" stroke="black" stroke-opacity="0.2"/>
<path d="M1218.15 98.8338C1174.15 104.495 1056.35 109.23 937.097 82.8791C788.031 49.9405 659.927 10.8258 447.974 28.3245C236.021 45.8232 157.606 67.4391 -0.00012207 47.8818" stroke="#BF9D7D" stroke-opacity="0.4"/>
<path d="M1218.15 98.8338C1174.15 104.495 1056.35 109.23 937.097 82.8791C788.031 49.9405 659.927 10.8258 447.974 28.3245C236.021 45.8232 157.606 67.4391 -0.00012207 47.8818" stroke="black" stroke-opacity="0.2"/>
<path d="M1218.15 86.8338C1174.15 92.4951 1056.35 97.2301 937.097 70.8791C788.031 37.9405 659.927 -1.17417 447.974 16.3245C236.021 33.8232 157.606 55.4391 -0.00012207 35.8818" stroke="#BF9D7D" stroke-opacity="0.4"/>
<path d="M1218.15 86.8338C1174.15 92.4951 1056.35 97.2301 937.097 70.8791C788.031 37.9405 659.927 -1.17417 447.974 16.3245C236.021 33.8232 157.606 55.4391 -0.00012207 35.8818" stroke="black" stroke-opacity="0.2"/>
<path d="M1218.15 74.8338C1174.15 80.4951 1056.35 85.2301 937.097 58.8791C788.031 25.9405 659.927 -13.1742 447.974 4.32449C236.021 21.8232 157.606 43.4391 -0.00012207 23.8818" stroke="#BF9D7D" stroke-opacity="0.4"/>
<path d="M1218.15 74.8338C1174.15 80.4951 1056.35 85.2301 937.097 58.8791C788.031 25.9405 659.927 -13.1742 447.974 4.32449C236.021 21.8232 157.606 43.4391 -0.00012207 23.8818" stroke="black" stroke-opacity="0.2"/>
</svg>
