<svg width="187" height="1068" viewBox="0 0 187 1068" fill="none" xmlns="http://www.w3.org/2000/svg">
<g clip-path="url(#clip0_239_3859)">
<path d="M4.16621 1218.15C-1.49512 1174.15 -6.23006 1056.35 20.1209 937.097C53.0595 788.031 92.1742 659.927 74.6755 447.974C57.1769 236.021 35.561 157.606 55.1183 -0.000123114" stroke="#BF9D7D"/>
<path d="M4.16621 1218.15C-1.49512 1174.15 -6.23006 1056.35 20.1209 937.097C53.0595 788.031 92.1742 659.927 74.6755 447.974C57.1769 236.021 35.561 157.606 55.1183 -0.000123114" stroke="black" stroke-opacity="0.2"/>
<path d="M16.1662 1218.15C10.5049 1174.15 5.76994 1056.35 32.1209 937.097C65.0595 788.031 104.174 659.927 86.6755 447.974C69.1769 236.021 47.561 157.606 67.1183 -0.000123114" stroke="#BF9D7D"/>
<path d="M16.1662 1218.15C10.5049 1174.15 5.76994 1056.35 32.1209 937.097C65.0595 788.031 104.174 659.927 86.6755 447.974C69.1769 236.021 47.561 157.606 67.1183 -0.000123114" stroke="black" stroke-opacity="0.2"/>
<path d="M28.1662 1218.15C22.5049 1174.15 17.7699 1056.35 44.1209 937.097C77.0595 788.031 116.174 659.927 98.6755 447.974C81.1769 236.021 59.561 157.606 79.1183 -0.000123114" stroke="#BF9D7D"/>
<path d="M28.1662 1218.15C22.5049 1174.15 17.7699 1056.35 44.1209 937.097C77.0595 788.031 116.174 659.927 98.6755 447.974C81.1769 236.021 59.561 157.606 79.1183 -0.000123114" stroke="black" stroke-opacity="0.2"/>
<path d="M40.1662 1218.15C34.5049 1174.15 29.7699 1056.35 56.1209 937.097C89.0595 788.031 128.174 659.927 110.676 447.974C93.1769 236.021 71.561 157.606 91.1183 -0.000123114" stroke="#BF9D7D"/>
<path d="M40.1662 1218.15C34.5049 1174.15 29.7699 1056.35 56.1209 937.097C89.0595 788.031 128.174 659.927 110.676 447.974C93.1769 236.021 71.561 157.606 91.1183 -0.000123114" stroke="black" stroke-opacity="0.2"/>
<path d="M52.1662 1218.15C46.5049 1174.15 41.7699 1056.35 68.1209 937.097C101.06 788.031 140.174 659.927 122.676 447.974C105.177 236.021 83.561 157.606 103.118 -0.000123114" stroke="#BF9D7D"/>
<path d="M52.1662 1218.15C46.5049 1174.15 41.7699 1056.35 68.1209 937.097C101.06 788.031 140.174 659.927 122.676 447.974C105.177 236.021 83.561 157.606 103.118 -0.000123114" stroke="black" stroke-opacity="0.2"/>
<path d="M64.1662 1218.15C58.5049 1174.15 53.7699 1056.35 80.1209 937.097C113.06 788.031 152.174 659.927 134.676 447.974C117.177 236.021 95.561 157.606 115.118 -0.000123114" stroke="#BF9D7D"/>
<path d="M64.1662 1218.15C58.5049 1174.15 53.7699 1056.35 80.1209 937.097C113.06 788.031 152.174 659.927 134.676 447.974C117.177 236.021 95.561 157.606 115.118 -0.000123114" stroke="black" stroke-opacity="0.2"/>
<path d="M76.1662 1218.15C70.5049 1174.15 65.7699 1056.35 92.1209 937.097C125.06 788.031 164.174 659.927 146.676 447.974C129.177 236.021 107.561 157.606 127.118 -0.000123114" stroke="#BF9D7D"/>
<path d="M76.1662 1218.15C70.5049 1174.15 65.7699 1056.35 92.1209 937.097C125.06 788.031 164.174 659.927 146.676 447.974C129.177 236.021 107.561 157.606 127.118 -0.000123114" stroke="black" stroke-opacity="0.2"/>
<path d="M88.1662 1218.15C82.5049 1174.15 77.7699 1056.35 104.121 937.097C137.06 788.031 176.174 659.927 158.676 447.974C141.177 236.021 119.561 157.606 139.118 -0.000123114" stroke="#BF9D7D"/>
<path d="M88.1662 1218.15C82.5049 1174.15 77.7699 1056.35 104.121 937.097C137.06 788.031 176.174 659.927 158.676 447.974C141.177 236.021 119.561 157.606 139.118 -0.000123114" stroke="black" stroke-opacity="0.2"/>
<path d="M100.166 1218.15C94.5049 1174.15 89.7699 1056.35 116.121 937.097C149.06 788.031 188.174 659.927 170.676 447.974C153.177 236.021 131.561 157.606 151.118 -0.000123114" stroke="#BF9D7D"/>
<path d="M100.166 1218.15C94.5049 1174.15 89.7699 1056.35 116.121 937.097C149.06 788.031 188.174 659.927 170.676 447.974C153.177 236.021 131.561 157.606 151.118 -0.000123114" stroke="black" stroke-opacity="0.2"/>
<path d="M112.166 1218.15C106.505 1174.15 101.77 1056.35 128.121 937.097C161.06 788.031 200.174 659.927 182.676 447.974C165.177 236.021 143.561 157.606 163.118 -0.000123114" stroke="#BF9D7D"/>
<path d="M112.166 1218.15C106.505 1174.15 101.77 1056.35 128.121 937.097C161.06 788.031 200.174 659.927 182.676 447.974C165.177 236.021 143.561 157.606 163.118 -0.000123114" stroke="black" stroke-opacity="0.2"/>
</g>
<defs>
<clipPath id="clip0_239_3859">
<rect width="1068" height="187" fill="white" transform="translate(187) rotate(90)"/>
</clipPath>
</defs>
</svg>
