<svg width="200" height="200" viewBox="0 0 200 200" fill="none" xmlns="http://www.w3.org/2000/svg">
<path d="M195.698 4.55149C195.679 5.76254 196.635 6.75876 197.82 6.77829C199.005 6.79783 199.98 5.82114 200 4.61009C200.019 3.39904 199.063 2.40288 197.877 2.38334C196.673 2.36381 195.698 3.34044 195.698 4.55149Z" fill="#E1D1C2"/>
<path d="M176.352 4.31711C176.333 5.52817 177.289 6.52432 178.474 6.54386C179.659 6.56339 180.634 5.58676 180.654 4.37571C180.673 3.16466 179.717 2.16844 178.532 2.14891C177.327 2.12938 176.371 3.10606 176.352 4.31711Z" fill="#E1D1C2"/>
<path d="M157.006 4.08268C156.987 5.29373 157.943 6.28989 159.128 6.30942C160.313 6.32895 161.288 5.35233 161.307 4.14128C161.327 2.93022 160.371 1.93401 159.185 1.91447C158 1.89494 157.025 2.87163 157.006 4.08268Z" fill="#E1D1C2"/>
<path d="M137.679 3.8483C137.66 5.05936 138.616 6.05551 139.801 6.07505C140.986 6.09458 141.961 5.11795 141.98 3.9069C141.999 2.69585 141.044 1.69963 139.858 1.6801C138.654 1.66056 137.679 2.63725 137.679 3.8483Z" fill="#E1D1C2"/>
<path d="M118.333 3.59435C118.314 4.80541 119.269 5.80156 120.455 5.8211C121.64 5.84063 122.615 4.864 122.634 3.65295C122.653 2.4419 121.697 1.44568 120.512 1.42615C119.327 1.42615 118.352 2.3833 118.333 3.59435Z" fill="#E1D1C2"/>
<path d="M98.9866 3.35996C98.9675 4.57101 99.9233 5.56717 101.109 5.5867C102.294 5.60624 103.269 4.62961 103.288 3.41856C103.307 2.20751 102.351 1.21129 101.166 1.19176C99.9807 1.17222 99.0057 2.14891 98.9866 3.35996Z" fill="#E1D1C2"/>
<path d="M79.6597 3.12553C79.6406 4.33658 80.5964 5.3328 81.7816 5.35233C82.9669 5.37186 83.9419 4.39518 83.961 3.18412C83.9801 1.97307 83.0243 0.976913 81.839 0.95738C80.6347 0.937847 79.6597 1.91447 79.6597 3.12553Z" fill="#E1D1C2"/>
<path d="M60.3135 2.89115C60.2944 4.1022 61.2502 5.09842 62.4354 5.11795C63.6207 5.13749 64.5957 4.1608 64.6148 2.94975C64.6339 1.7387 63.6781 0.742538 62.4929 0.723005C61.2885 0.703472 60.3326 1.6801 60.3135 2.89115Z" fill="#E1D1C2"/>
<path d="M40.9673 2.6372C40.9482 3.84825 41.904 4.84447 43.0893 4.864C44.2745 4.88354 45.2495 3.90685 45.2686 2.6958C45.2877 1.48475 44.3318 0.488588 43.1466 0.469055C41.9614 0.469055 40.9864 1.42615 40.9673 2.6372Z" fill="#E1D1C2"/>
<path d="M21.6211 2.40283C21.602 3.61388 22.5579 4.6101 23.7431 4.62963C24.9284 4.64916 25.9033 3.67248 25.9224 2.46142C25.9415 1.25037 24.9857 0.254213 23.8005 0.23468C22.6152 0.23468 21.6402 1.19177 21.6211 2.40283Z" fill="#E1D1C2"/>
<path d="M2.29423 2.16843C2.27511 3.37949 3.23092 4.3757 4.41616 4.39524C5.60139 4.41477 6.57638 3.43808 6.59549 2.22703C6.61461 1.01598 5.65874 0.0198211 4.4735 0.000287982C3.28827 -0.0192451 2.31334 0.957382 2.29423 2.16843Z" fill="#E1D1C2"/>
<path d="M195.488 22.1117C195.469 23.3228 196.425 24.319 197.61 24.3386C198.795 24.3581 199.77 23.3814 199.789 22.1703C199.808 20.9593 198.853 19.9631 197.667 19.9436C196.463 19.9436 195.507 20.9007 195.488 22.1117Z" fill="#E1D1C2"/>
<path d="M176.142 21.8774C176.123 23.0884 177.079 24.0846 178.264 24.1042C179.449 24.1237 180.424 23.147 180.443 21.936C180.462 20.7249 179.506 19.7287 178.321 19.7092C177.136 19.6897 176.161 20.6663 176.142 21.8774Z" fill="#E1D1C2"/>
<path d="M156.796 21.6429C156.777 22.854 157.733 23.8502 158.918 23.8697C160.103 23.8893 161.078 22.9126 161.097 21.7015C161.116 20.4905 160.16 19.4943 158.975 19.4748C157.79 19.4552 156.815 20.4319 156.796 21.6429Z" fill="#E1D1C2"/>
<path d="M137.469 21.4085C137.45 22.6196 138.405 23.6158 139.591 23.6353C140.776 23.6548 141.751 22.6782 141.77 21.4671C141.789 20.2561 140.833 19.2599 139.648 19.2403C138.444 19.2208 137.469 20.1975 137.469 21.4085Z" fill="#E1D1C2"/>
<path d="M118.123 21.1742C118.103 22.3852 119.059 23.3814 120.245 23.4009C121.43 23.4204 122.405 22.4438 122.424 21.2328C122.443 20.0217 121.487 19.0255 120.302 19.006C119.117 18.9864 118.142 19.9631 118.123 21.1742Z" fill="#E1D1C2"/>
<path d="M98.7766 20.9398C98.7575 22.1509 99.7133 23.147 100.899 23.1665C102.084 23.1861 103.059 22.2095 103.078 20.9984C103.097 19.7873 102.141 18.7911 100.956 18.7716C99.7707 18.7521 98.7958 19.7092 98.7766 20.9398Z" fill="#E1D1C2"/>
<path d="M79.4495 20.6858C79.4304 21.8969 80.3862 22.893 81.5714 22.9126C82.7567 22.9321 83.7316 21.9555 83.7508 20.7444C83.7699 19.5334 82.814 18.5372 81.6287 18.5176C80.4244 18.4981 79.4495 19.4748 79.4495 20.6858Z" fill="#E1D1C2"/>
<path d="M60.1036 20.4515C60.0844 21.6625 61.0402 22.6587 62.2255 22.6782C63.4107 22.6977 64.3857 21.7211 64.4048 20.51C64.4239 19.299 63.468 18.3028 62.2828 18.2832C61.0975 18.2637 60.1227 19.2404 60.1036 20.4515Z" fill="#E1D1C2"/>
<path d="M40.7571 20.217C40.738 21.4281 41.6939 22.4243 42.8791 22.4438C44.0643 22.4634 45.0393 21.4867 45.0584 20.2756C45.0775 19.0646 44.1217 18.0684 42.9365 18.0489C41.7512 18.0293 40.7762 19.006 40.7571 20.217Z" fill="#E1D1C2"/>
<path d="M21.4302 19.9826C21.4111 21.1937 22.3669 22.1899 23.5521 22.2095C24.7374 22.229 25.7124 21.2523 25.7315 20.0412C25.7506 18.8302 24.7947 17.834 23.6095 17.8145C22.4051 17.795 21.4302 18.7521 21.4302 19.9826Z" fill="#E1D1C2"/>
<path d="M2.08402 19.7287C2.06491 20.9397 3.02077 21.936 4.20601 21.9555C5.39125 21.975 6.36617 20.9983 6.38529 19.7873C6.4044 18.5762 5.4486 17.5801 4.26336 17.5605C3.07812 17.5605 2.10314 18.5176 2.08402 19.7287Z" fill="#E1D1C2"/>
<path d="M195.278 39.6915C195.259 40.9026 196.215 41.8988 197.4 41.9183C198.585 41.9378 199.56 40.9612 199.579 39.7501C199.598 38.539 198.642 37.5429 197.457 37.5234C196.272 37.5038 195.297 38.4805 195.278 39.6915Z" fill="#E1D1C2"/>
<path d="M175.932 39.4571C175.913 40.6682 176.868 41.6644 178.054 41.6839C179.239 41.7035 180.214 40.7268 180.233 39.5157C180.252 38.3047 179.296 37.3085 178.111 37.289C176.926 37.2695 175.951 38.2266 175.932 39.4571Z" fill="#E1D1C2"/>
<path d="M156.605 39.2032C156.586 40.4142 157.541 41.4104 158.727 41.43C159.912 41.4495 160.887 40.4728 160.906 39.2618C160.925 38.0507 159.969 37.0546 158.784 37.035C157.58 37.035 156.605 37.9921 156.605 39.2032Z" fill="#E1D1C2"/>
<path d="M137.259 38.9688C137.239 40.1798 138.195 41.1761 139.381 41.1956C140.566 41.2151 141.541 40.2384 141.56 39.0274C141.579 37.8163 140.623 36.8202 139.438 36.8006C138.234 36.7811 137.278 37.7577 137.259 38.9688Z" fill="#E1D1C2"/>
<path d="M117.912 38.7344C117.893 39.9455 118.849 40.9417 120.034 40.9612C121.22 40.9807 122.195 40.0041 122.214 38.793C122.233 37.582 121.277 36.5858 120.092 36.5663C118.906 36.5467 117.932 37.5234 117.912 38.7344Z" fill="#E1D1C2"/>
<path d="M98.5664 38.5C98.5473 39.711 99.5031 40.7072 100.688 40.7267C101.874 40.7463 102.849 39.7696 102.868 38.5586C102.887 37.3475 101.931 36.3513 100.746 36.3318C99.5604 36.3122 98.5856 37.2889 98.5664 38.5Z" fill="#E1D1C2"/>
<path d="M79.2393 38.2461C79.2202 39.4571 80.1761 40.4534 81.3613 40.4729C82.5466 40.4924 83.5214 39.5157 83.5406 38.3047C83.5597 37.0936 82.6039 36.0975 81.4186 36.0779C80.2143 36.0779 79.2584 37.035 79.2393 38.2461Z" fill="#E1D1C2"/>
<path d="M59.8931 38.0117C59.874 39.2227 60.8299 40.2189 62.0152 40.2384C63.2004 40.258 64.1753 39.2813 64.1944 38.0703C64.2135 36.8592 63.2577 35.863 62.0724 35.8435C60.8872 35.824 59.9122 36.8006 59.8931 38.0117Z" fill="#E1D1C2"/>
<path d="M40.5469 37.7773C40.5278 38.9883 41.4836 39.9845 42.6688 40.004C43.8541 40.0235 44.8291 39.0469 44.8482 37.8359C44.8673 36.6248 43.9114 35.6286 42.7262 35.6091C41.541 35.5895 40.566 36.5662 40.5469 37.7773Z" fill="#E1D1C2"/>
<path d="M21.22 37.5429C21.2009 38.7539 22.1568 39.7501 23.342 39.7696C24.5272 39.7892 25.5022 38.8125 25.5213 37.6015C25.5404 36.3904 24.5846 35.3942 23.3993 35.3747C22.195 35.3551 21.2391 36.3318 21.22 37.5429Z" fill="#E1D1C2"/>
<path d="M1.87382 37.3084C1.8547 38.5195 2.81051 39.5157 3.99575 39.5353C5.18098 39.5548 6.15597 38.5781 6.17508 37.367C6.1942 36.156 5.23833 35.1598 4.05309 35.1403C2.86786 35.1208 1.89293 36.0974 1.87382 37.3084Z" fill="#E1D1C2"/>
<path d="M195.067 57.2518C195.048 58.4629 196.004 59.459 197.189 59.4785C198.375 59.4981 199.35 58.5215 199.369 57.3104C199.388 56.0994 198.432 55.1031 197.247 55.0836C196.062 55.0641 195.087 56.0408 195.067 57.2518Z" fill="#E1D1C2"/>
<path d="M175.721 57.0174C175.702 58.2285 176.658 59.2246 177.843 59.2442C179.029 59.2637 180.004 58.2871 180.023 57.076C180.042 55.865 179.086 54.8688 177.901 54.8492C176.716 54.8297 175.741 55.8064 175.721 57.0174Z" fill="#E1D1C2"/>
<path d="M156.394 56.7829C156.375 57.994 157.331 58.9902 158.516 59.0097C159.701 59.0293 160.676 58.0526 160.696 56.8415C160.715 55.6305 159.759 54.6343 158.574 54.6148C157.369 54.5953 156.394 55.5719 156.394 56.7829Z" fill="#E1D1C2"/>
<path d="M137.048 56.5486C137.029 57.7596 137.985 58.7558 139.17 58.7754C140.355 58.7754 141.33 57.8182 141.349 56.6071C141.369 55.3961 140.413 54.3999 139.227 54.3804C138.042 54.3413 137.067 55.318 137.048 56.5486Z" fill="#E1D1C2"/>
<path d="M117.702 56.2947C117.683 57.5057 118.639 58.5019 119.824 58.5215C121.009 58.541 121.984 57.5643 122.003 56.3533C122.023 55.1422 121.067 54.146 119.881 54.1265C118.696 54.107 117.721 55.0836 117.702 56.2947Z" fill="#E1D1C2"/>
<path d="M98.375 56.0602C98.3559 57.2713 99.3118 58.2675 100.497 58.287C101.682 58.3066 102.657 57.3299 102.676 56.1188C102.695 54.9078 101.74 53.9116 100.554 53.8921C99.35 53.8725 98.375 54.8492 98.375 56.0602Z" fill="#E1D1C2"/>
<path d="M79.0288 55.8258C79.0097 57.0369 79.9655 58.0331 81.1508 58.0526C82.336 58.0722 83.311 57.0955 83.3301 55.8844C83.3492 54.6734 82.3934 53.6772 81.2082 53.6577C80.0229 53.6382 79.048 54.6148 79.0288 55.8258Z" fill="#E1D1C2"/>
<path d="M59.6827 55.5915C59.6635 56.8025 60.6193 57.7987 61.8046 57.8182C62.9898 57.8377 63.9648 56.8611 63.9839 55.6501C64.003 54.439 63.0472 53.4428 61.862 53.4233C60.6768 53.4037 59.7018 54.3804 59.6827 55.5915Z" fill="#E1D1C2"/>
<path d="M40.3558 55.3375C40.3366 56.5486 41.2924 57.5448 42.4777 57.5643C43.6629 57.5839 44.6379 56.6072 44.657 55.3961C44.6761 54.1851 43.7203 53.1889 42.535 53.1694C41.3307 53.1694 40.3558 54.1265 40.3558 55.3375Z" fill="#E1D1C2"/>
<path d="M21.0096 55.1031C20.9904 56.3142 21.9463 57.3103 23.1315 57.3299C24.3167 57.3494 25.2917 56.3728 25.3108 55.1617C25.3299 53.9507 24.3741 52.9545 23.1888 52.9349C22.0036 52.9154 21.0287 53.8921 21.0096 55.1031Z" fill="#E1D1C2"/>
<path d="M1.66337 54.8688C1.64425 56.0798 2.60012 57.076 3.78536 57.0955C4.97059 57.115 5.94552 56.1384 5.96463 54.9273C5.98375 53.7163 5.02794 52.7201 3.8427 52.7005C2.65747 52.681 1.68248 53.6577 1.66337 54.8688Z" fill="#E1D1C2"/>
<path d="M194.857 74.8121C194.838 76.0231 195.794 77.0193 196.979 77.0389C198.164 77.0584 199.139 76.0817 199.158 74.8707C199.178 73.6596 198.222 72.6635 197.037 72.6439C195.851 72.6439 194.876 73.601 194.857 74.8121Z" fill="#E1D1C2"/>
<path d="M175.511 74.5777C175.492 75.7887 176.448 76.7849 177.633 76.8044C178.818 76.8239 179.793 75.8473 179.813 74.6363C179.832 73.4252 178.876 72.429 177.69 72.4095C176.505 72.3899 175.53 73.3666 175.511 74.5777Z" fill="#E1D1C2"/>
<path d="M156.184 74.3432C156.165 75.5543 157.121 76.5504 158.306 76.57C159.491 76.5895 160.466 75.6129 160.485 74.4018C160.505 73.1908 159.549 72.1946 158.363 72.175C157.159 72.1555 156.184 73.1322 156.184 74.3432Z" fill="#E1D1C2"/>
<path d="M136.838 74.1089C136.819 75.3199 137.775 76.3161 138.96 76.3356C140.145 76.3551 141.12 75.3785 141.139 74.1675C141.158 72.9564 140.203 71.9602 139.017 71.9407C137.832 71.9211 136.857 72.8783 136.838 74.1089Z" fill="#E1D1C2"/>
<path d="M117.492 73.8549C117.473 75.066 118.429 76.0621 119.614 76.0817C120.799 76.1012 121.774 75.1246 121.793 73.9135C121.812 72.7025 120.856 71.7062 119.671 71.6867C118.486 71.6867 117.511 72.6439 117.492 73.8549Z" fill="#E1D1C2"/>
<path d="M98.1648 73.6205C98.1457 74.8316 99.1015 75.8277 100.287 75.8473C101.472 75.8668 102.447 74.8902 102.466 73.6791C102.485 72.4681 101.529 71.4718 100.344 71.4523C99.1398 71.4328 98.1839 72.4095 98.1648 73.6205Z" fill="#E1D1C2"/>
<path d="M78.8186 73.3861C78.7995 74.5971 79.7553 75.5934 80.9406 75.6129C82.1258 75.6324 83.1008 74.6557 83.1199 73.4447C83.139 72.2336 82.1832 71.2375 80.998 71.2179C79.8127 71.1984 78.8378 72.175 78.8186 73.3861Z" fill="#E1D1C2"/>
<path d="M59.4724 73.1517C59.4533 74.3628 60.4091 75.359 61.5944 75.3785C62.7796 75.398 63.7546 74.4214 63.7737 73.2103C63.7928 71.9993 62.837 71.0031 61.6518 70.9836C60.4665 70.964 59.4916 71.9407 59.4724 73.1517Z" fill="#E1D1C2"/>
<path d="M40.1455 72.9173C40.1264 74.1284 41.0823 75.1246 42.2675 75.1441C43.4528 75.1637 44.4277 74.187 44.4468 72.9759C44.4659 71.7649 43.5101 70.7687 42.3249 70.7492C41.1396 70.7297 40.1647 71.7063 40.1455 72.9173Z" fill="#E1D1C2"/>
<path d="M20.7994 72.6634C20.7802 73.8744 21.7361 74.8707 22.9213 74.8902C24.1066 74.9097 25.0815 73.933 25.1006 72.722C25.1197 71.5109 24.1639 70.5148 22.9787 70.4952C21.7935 70.4952 20.8185 71.4523 20.7994 72.6634Z" fill="#E1D1C2"/>
<path d="M1.45316 72.429C1.43405 73.64 2.38985 74.6363 3.57509 74.6558C4.76033 74.6753 5.73531 73.6986 5.75443 72.4876C5.77354 71.2765 4.81768 70.2804 3.63244 70.2608C2.4472 70.2413 1.47228 71.2179 1.45316 72.429Z" fill="#E1D1C2"/>
<path d="M194.647 92.3918C194.628 93.6029 195.584 94.5991 196.769 94.6186C197.954 94.6382 198.929 93.6615 198.948 92.4504C198.967 91.2394 198.011 90.2432 196.826 90.2237C195.641 90.2041 194.666 91.1808 194.647 92.3918Z" fill="#E1D1C2"/>
<path d="M175.32 92.1379C175.301 93.3489 176.257 94.3451 177.442 94.3647C178.627 94.3842 179.602 93.4075 179.621 92.1965C179.64 90.9854 178.684 89.9892 177.499 89.9697C176.295 89.9502 175.32 90.9268 175.32 92.1379Z" fill="#E1D1C2"/>
<path d="M155.974 91.9035C155.955 93.1145 156.911 94.1107 158.096 94.1303C159.281 94.1498 160.256 93.1731 160.275 91.9621C160.294 90.751 159.338 89.7549 158.153 89.7353C156.968 89.7158 155.993 90.6924 155.974 91.9035Z" fill="#E1D1C2"/>
<path d="M136.628 91.6691C136.609 92.8802 137.564 93.8763 138.75 93.8958C139.935 93.9154 140.91 92.9388 140.929 91.7277C140.948 90.5166 139.992 89.5204 138.807 89.5009C137.622 89.4814 136.647 90.4581 136.628 91.6691Z" fill="#E1D1C2"/>
<path d="M117.301 91.4347C117.281 92.6458 118.237 93.6419 119.423 93.6615C120.608 93.681 121.583 92.7044 121.602 91.4933C121.621 90.2823 120.665 89.2861 119.48 89.2665C118.276 89.247 117.301 90.2237 117.301 91.4347Z" fill="#E1D1C2"/>
<path d="M97.9546 91.2004C97.9355 92.4114 98.8913 93.4076 100.077 93.4271C101.262 93.4466 102.237 92.47 102.256 91.259C102.275 90.0479 101.319 89.0517 100.134 89.0322C98.9487 89.0126 97.9737 89.9698 97.9546 91.2004Z" fill="#E1D1C2"/>
<path d="M78.6084 90.9464C78.5893 92.1574 79.5451 93.1536 80.7304 93.1731C81.9156 93.1927 82.8906 92.216 82.9097 91.005C82.9288 89.7939 81.9729 88.7977 80.7877 88.7782C79.6024 88.7586 78.6276 89.7353 78.6084 90.9464Z" fill="#E1D1C2"/>
<path d="M59.2813 90.712C59.2622 91.9231 60.2181 92.9192 61.4033 92.9388C62.5886 92.9583 63.5634 91.9817 63.5826 90.7706C63.6017 89.5596 62.6459 88.5633 61.4606 88.5438C60.2563 88.5243 59.2813 89.501 59.2813 90.712Z" fill="#E1D1C2"/>
<path d="M39.9351 90.4776C39.916 91.6886 40.8718 92.6848 42.057 92.7044C43.2423 92.7239 44.2172 91.7472 44.2364 90.5362C44.2555 89.3251 43.2996 88.329 42.1144 88.3094C40.9291 88.2899 39.9542 89.2665 39.9351 90.4776Z" fill="#E1D1C2"/>
<path d="M20.5891 90.2431C20.57 91.4542 21.5258 92.4504 22.7111 92.4699C23.8963 92.4895 24.8713 91.5128 24.8904 90.3017C24.9095 89.0907 23.9537 88.0945 22.7684 88.075C21.5832 88.0555 20.6083 89.0126 20.5891 90.2431Z" fill="#E1D1C2"/>
<path d="M1.262 90.0088C1.24288 91.2198 2.19875 92.216 3.38399 92.2356C4.56923 92.2551 5.54415 91.2784 5.56327 90.0674C5.58238 88.8563 4.62657 87.8602 3.44134 87.8406C2.23698 87.8211 1.262 88.7782 1.262 90.0088Z" fill="#E1D1C2"/>
<path d="M194.437 109.952C194.418 111.163 195.374 112.159 196.559 112.179C197.744 112.198 198.719 111.222 198.738 110.011C198.757 108.8 197.801 107.804 196.616 107.784C195.431 107.764 194.456 108.741 194.437 109.952Z" fill="#E1D1C2"/>
<path d="M175.11 109.698C175.091 110.909 176.046 111.905 177.232 111.925C178.417 111.945 179.392 110.968 179.411 109.757C179.43 108.546 178.474 107.55 177.289 107.53C176.085 107.53 175.129 108.487 175.11 109.698Z" fill="#E1D1C2"/>
<path d="M155.763 109.464C155.744 110.675 156.7 111.671 157.885 111.691C159.071 111.71 160.046 110.733 160.065 109.522C160.084 108.311 159.128 107.315 157.943 107.296C156.758 107.296 155.783 108.253 155.763 109.464Z" fill="#E1D1C2"/>
<path d="M136.418 109.229C136.398 110.44 137.354 111.437 138.539 111.456C139.725 111.476 140.7 110.499 140.719 109.288C140.738 108.077 139.782 107.081 138.597 107.061C137.412 107.042 136.437 108.018 136.418 109.229Z" fill="#E1D1C2"/>
<path d="M117.09 108.995C117.071 110.206 118.027 111.202 119.212 111.222C120.398 111.241 121.373 110.265 121.392 109.054C121.411 107.843 120.455 106.846 119.27 106.827C118.084 106.807 117.09 107.784 117.09 108.995Z" fill="#E1D1C2"/>
<path d="M97.7444 108.761C97.7253 109.972 98.6811 110.968 99.8664 110.987C101.052 111.007 102.027 110.03 102.046 108.819C102.065 107.608 101.109 106.612 99.9236 106.592C98.7384 106.573 97.7635 107.55 97.7444 108.761Z" fill="#E1D1C2"/>
<path d="M78.398 108.526C78.3789 109.737 79.3348 110.733 80.52 110.753C81.7053 110.772 82.6801 109.796 82.6993 108.585C82.7184 107.374 81.7626 106.378 80.5773 106.358C79.3921 106.338 78.4171 107.315 78.398 108.526Z" fill="#E1D1C2"/>
<path d="M59.0711 108.272C59.052 109.483 60.0078 110.479 61.193 110.499C62.3782 110.519 63.3532 109.542 63.3723 108.331C63.3915 107.12 62.4357 106.124 61.2504 106.104C60.0461 106.104 59.0902 107.061 59.0711 108.272Z" fill="#E1D1C2"/>
<path d="M39.7249 108.038C39.7058 109.249 40.6616 110.245 41.8469 110.265C43.0321 110.284 44.007 109.308 44.0262 108.096C44.0453 106.885 43.0895 105.889 41.9042 105.87C40.719 105.85 39.744 106.827 39.7249 108.038Z" fill="#E1D1C2"/>
<path d="M20.3787 107.804C20.3596 109.015 21.3155 110.011 22.5007 110.03C23.6859 110.05 24.6608 109.073 24.68 107.862C24.6991 106.651 23.7433 105.655 22.558 105.635C21.3728 105.616 20.3978 106.592 20.3787 107.804Z" fill="#E1D1C2"/>
<path d="M1.0518 107.569C1.03268 108.78 1.98849 109.776 3.17373 109.796C4.35896 109.815 5.33394 108.839 5.35306 107.628C5.37218 106.417 4.41631 105.42 3.23107 105.401C2.02672 105.381 1.0518 106.358 1.0518 107.569Z" fill="#E1D1C2"/>
<path d="M194.245 127.512C194.226 128.723 195.182 129.72 196.367 129.739C197.553 129.759 198.528 128.782 198.547 127.571C198.566 126.36 197.61 125.364 196.425 125.344C195.22 125.325 194.245 126.301 194.245 127.512Z" fill="#E1D1C2"/>
<path d="M174.899 127.278C174.88 128.489 175.836 129.485 177.021 129.505C178.207 129.524 179.182 128.548 179.201 127.337C179.22 126.126 178.264 125.129 177.079 125.11C175.894 125.09 174.919 126.067 174.899 127.278Z" fill="#E1D1C2"/>
<path d="M155.553 127.044C155.534 128.255 156.49 129.251 157.675 129.27C158.86 129.29 159.835 128.313 159.855 127.102C159.874 125.891 158.918 124.895 157.732 124.875C156.547 124.856 155.572 125.833 155.553 127.044Z" fill="#E1D1C2"/>
<path d="M136.226 126.79C136.207 128.001 137.163 128.997 138.348 129.016C139.533 129.036 140.508 128.059 140.527 126.848C140.546 125.637 139.591 124.641 138.405 124.621C137.201 124.621 136.226 125.579 136.226 126.79Z" fill="#E1D1C2"/>
<path d="M116.88 126.555C116.861 127.766 117.817 128.762 119.002 128.782C120.187 128.802 121.162 127.825 121.181 126.614C121.2 125.403 120.244 124.407 119.059 124.387C117.874 124.368 116.899 125.344 116.88 126.555Z" fill="#E1D1C2"/>
<path d="M97.5337 126.321C97.5146 127.532 98.4705 128.528 99.6558 128.548C100.841 128.567 101.816 127.59 101.835 126.379C101.854 125.168 100.898 124.172 99.7131 124.153C98.5278 124.133 97.5528 125.11 97.5337 126.321Z" fill="#E1D1C2"/>
<path d="M78.2068 126.086C78.1877 127.298 79.1435 128.294 80.3288 128.313C81.514 128.333 82.489 127.356 82.5081 126.145C82.5272 124.934 81.5714 123.938 80.3862 123.918C79.1818 123.899 78.2068 124.875 78.2068 126.086Z" fill="#E1D1C2"/>
<path d="M58.8606 125.852C58.8415 127.063 59.7973 128.059 60.9826 128.079C62.1678 128.098 63.1428 127.122 63.1619 125.911C63.181 124.7 62.2252 123.703 61.04 123.684C59.8547 123.664 58.8798 124.622 58.8606 125.852Z" fill="#E1D1C2"/>
<path d="M39.5144 125.598C39.4953 126.809 40.4511 127.805 41.6364 127.825C42.8216 127.844 43.7966 126.868 43.8157 125.657C43.8348 124.446 42.879 123.45 41.6937 123.43C40.5085 123.43 39.5336 124.387 39.5144 125.598Z" fill="#E1D1C2"/>
<path d="M20.1875 125.364C20.1684 126.575 21.1243 127.571 22.3095 127.59C23.4948 127.61 24.4697 126.633 24.4888 125.422C24.5079 124.211 23.5521 123.215 22.3669 123.196C21.1625 123.176 20.1875 124.153 20.1875 125.364Z" fill="#E1D1C2"/>
<path d="M0.841346 125.129C0.82223 126.34 1.7781 127.337 2.96333 127.356C4.14857 127.376 5.1235 126.399 5.14261 125.188C5.16173 123.977 4.20592 122.981 3.02068 122.961C1.83544 122.942 0.860463 123.918 0.841346 125.129Z" fill="#E1D1C2"/>
<path d="M194.035 145.073C194.016 146.284 194.972 147.28 196.157 147.299C197.342 147.319 198.317 146.342 198.336 145.131C198.356 143.92 197.4 142.924 196.214 142.905C195.029 142.885 194.035 143.862 194.035 145.073Z" fill="#E1D1C2"/>
<path d="M174.689 144.838C174.67 146.049 175.626 147.045 176.811 147.065C177.996 147.085 178.971 146.108 178.991 144.897C179.01 143.686 178.054 142.69 176.868 142.67C175.683 142.65 174.708 143.627 174.689 144.838Z" fill="#E1D1C2"/>
<path d="M155.343 144.604C155.324 145.815 156.28 146.811 157.465 146.831C158.65 146.85 159.625 145.874 159.644 144.662C159.663 143.451 158.707 142.455 157.522 142.436C156.337 142.416 155.362 143.393 155.343 144.604Z" fill="#E1D1C2"/>
<path d="M136.016 144.369C135.997 145.581 136.953 146.577 138.138 146.596C139.323 146.616 140.298 145.639 140.317 144.428C140.336 143.217 139.38 142.221 138.195 142.201C136.991 142.182 136.035 143.158 136.016 144.369Z" fill="#E1D1C2"/>
<path d="M116.67 144.116C116.651 145.327 117.606 146.323 118.792 146.342C119.977 146.362 120.952 145.385 120.971 144.174C120.99 142.963 120.034 141.967 118.849 141.947C117.664 141.947 116.689 142.924 116.67 144.116Z" fill="#E1D1C2"/>
<path d="M97.3235 143.881C97.3044 145.092 98.2602 146.088 99.4455 146.108C100.631 146.127 101.606 145.151 101.625 143.94C101.644 142.729 100.688 141.732 99.5029 141.713C98.3176 141.693 97.3426 142.67 97.3235 143.881Z" fill="#E1D1C2"/>
<path d="M77.9966 143.647C77.9775 144.858 78.9333 145.854 80.1185 145.874C81.3038 145.893 82.2788 144.916 82.2979 143.705C82.317 142.494 81.3612 141.498 80.176 141.479C78.9716 141.459 77.9966 142.436 77.9966 143.647Z" fill="#E1D1C2"/>
<path d="M58.6504 143.412C58.6313 144.623 59.5871 145.62 60.7724 145.639C61.9576 145.659 62.9326 144.682 62.9517 143.471C62.9708 142.26 62.015 141.264 60.8298 141.244C59.6445 141.225 58.6695 142.201 58.6504 143.412Z" fill="#E1D1C2"/>
<path d="M39.3042 143.178C39.2851 144.389 40.241 145.385 41.4262 145.405C42.6115 145.424 43.5864 144.448 43.6055 143.237C43.6246 142.026 42.6688 141.029 41.4836 141.01C40.2983 140.99 39.3234 141.967 39.3042 143.178Z" fill="#E1D1C2"/>
<path d="M19.9773 142.944C19.9582 144.155 20.914 145.151 22.0993 145.17C23.2845 145.19 24.2595 144.213 24.2786 143.002C24.2977 141.791 23.3418 140.795 22.1566 140.775C20.9523 140.756 19.9773 141.713 19.9773 142.944Z" fill="#E1D1C2"/>
<path d="M0.631141 142.69C0.612024 143.901 1.56783 144.897 2.75307 144.916C3.93831 144.936 4.91329 143.959 4.93241 142.748C4.95152 141.537 3.99566 140.541 2.81042 140.521C1.62518 140.502 0.650258 141.479 0.631141 142.69Z" fill="#E1D1C2"/>
<path d="M193.825 162.652C193.806 163.863 194.762 164.86 195.947 164.879C197.132 164.899 198.107 163.922 198.126 162.711C198.145 161.5 197.19 160.504 196.004 160.484C194.819 160.465 193.844 161.441 193.825 162.652Z" fill="#E1D1C2"/>
<path d="M174.479 162.418C174.46 163.629 175.416 164.625 176.601 164.645C177.786 164.645 178.761 163.688 178.78 162.477C178.799 161.266 177.843 160.269 176.658 160.25C175.473 160.211 174.498 161.187 174.479 162.418Z" fill="#E1D1C2"/>
<path d="M155.152 162.164C155.133 163.375 156.089 164.371 157.274 164.391C158.459 164.41 159.434 163.434 159.453 162.223C159.472 161.012 158.516 160.015 157.331 159.996C156.127 159.976 155.152 160.953 155.152 162.164Z" fill="#E1D1C2"/>
<path d="M135.806 161.93C135.787 163.141 136.742 164.137 137.928 164.156C139.113 164.176 140.088 163.199 140.107 161.988C140.126 160.777 139.17 159.781 137.985 159.762C136.8 159.742 135.825 160.719 135.806 161.93Z" fill="#E1D1C2"/>
<path d="M116.46 161.695C116.44 162.906 117.396 163.903 118.581 163.922C119.767 163.942 120.742 162.965 120.761 161.754C120.78 160.543 119.824 159.547 118.639 159.527C117.454 159.508 116.479 160.484 116.46 161.695Z" fill="#E1D1C2"/>
<path d="M97.1326 161.461C97.1135 162.672 98.0693 163.668 99.2545 163.688C100.44 163.707 101.415 162.731 101.434 161.52C101.453 160.308 100.497 159.312 99.3118 159.293C98.1075 159.273 97.1326 160.25 97.1326 161.461Z" fill="#E1D1C2"/>
<path d="M77.7864 161.207C77.7673 162.418 78.7231 163.414 79.9083 163.434C81.0936 163.453 82.0686 162.477 82.0877 161.266C82.1068 160.055 81.1509 159.058 79.9656 159.039C78.7613 159.039 77.8055 159.996 77.7864 161.207Z" fill="#E1D1C2"/>
<path d="M58.4405 160.973C58.4214 162.184 59.3772 163.18 60.5624 163.199C61.7476 163.219 62.7226 162.242 62.7417 161.031C62.7608 159.82 61.8049 158.824 60.6197 158.804C59.4344 158.785 58.4596 159.762 58.4405 160.973Z" fill="#E1D1C2"/>
<path d="M39.094 160.738C39.0749 161.949 40.0307 162.945 41.216 162.965C42.4012 162.984 43.3762 162.008 43.3953 160.797C43.4144 159.586 42.4585 158.59 41.2733 158.57C40.0881 158.55 39.1131 159.527 39.094 160.738Z" fill="#E1D1C2"/>
<path d="M19.7671 160.504C19.748 161.715 20.7039 162.711 21.8891 162.731C23.0744 162.75 24.0493 161.773 24.0684 160.562C24.0875 159.351 23.1317 158.355 21.9465 158.336C20.7612 158.316 19.7862 159.293 19.7671 160.504Z" fill="#E1D1C2"/>
<path d="M0.420936 160.269C0.401819 161.48 1.35769 162.477 2.54292 162.496C3.72816 162.516 4.70308 161.539 4.7222 160.328C4.74132 159.117 3.78551 158.121 2.60027 158.101C1.41503 158.082 0.440053 159.039 0.420936 160.269Z" fill="#E1D1C2"/>
<path d="M193.615 180.213C193.596 181.424 194.551 182.42 195.737 182.439C196.922 182.459 197.897 181.482 197.916 180.271C197.935 179.06 196.979 178.064 195.794 178.045C194.609 178.025 193.634 179.002 193.615 180.213Z" fill="#E1D1C2"/>
<path d="M174.269 179.978C174.249 181.189 175.205 182.186 176.391 182.205C177.576 182.225 178.551 181.248 178.57 180.037C178.589 178.826 177.633 177.83 176.448 177.81C175.263 177.791 174.288 178.767 174.269 179.978Z" fill="#E1D1C2"/>
<path d="M154.942 179.724C154.923 180.935 155.878 181.932 157.064 181.951C158.249 181.971 159.224 180.994 159.243 179.783C159.262 178.572 158.306 177.576 157.121 177.556C155.917 177.556 154.942 178.513 154.942 179.724Z" fill="#E1D1C2"/>
<path d="M135.595 179.49C135.576 180.701 136.532 181.697 137.717 181.717C138.903 181.736 139.878 180.76 139.897 179.549C139.916 178.338 138.96 177.341 137.775 177.322C136.59 177.302 135.615 178.279 135.595 179.49Z" fill="#E1D1C2"/>
<path d="M116.249 179.256C116.23 180.467 117.186 181.463 118.371 181.482C119.556 181.502 120.531 180.525 120.551 179.314C120.57 178.103 119.614 177.107 118.429 177.087C117.243 177.068 116.268 178.045 116.249 179.256Z" fill="#E1D1C2"/>
<path d="M96.9224 179.021C96.9033 180.232 97.8592 181.228 99.0444 181.248C100.23 181.267 101.205 180.291 101.224 179.08C101.243 177.869 100.287 176.873 99.1017 176.853C97.8974 176.833 96.9224 177.81 96.9224 179.021Z" fill="#E1D1C2"/>
<path d="M77.5762 178.787C77.5571 179.998 78.513 180.994 79.6983 181.014C80.8835 181.033 81.8584 180.056 81.8775 178.845C81.8966 177.634 80.9408 176.638 79.7555 176.619C78.5703 176.599 77.5953 177.556 77.5762 178.787Z" fill="#E1D1C2"/>
<path d="M58.23 178.533C58.2109 179.744 59.1668 180.74 60.3521 180.76C61.5373 180.779 62.5122 179.803 62.5313 178.591C62.5504 177.38 61.5946 176.384 60.4094 176.365C59.2241 176.345 58.2491 177.322 58.23 178.533Z" fill="#E1D1C2"/>
<path d="M38.9031 178.298C38.884 179.51 39.8399 180.506 41.0251 180.525C42.2103 180.545 43.1853 179.568 43.2044 178.357C43.2235 177.146 42.2677 176.15 41.0824 176.13C39.8781 176.111 38.9031 177.087 38.9031 178.298Z" fill="#E1D1C2"/>
<path d="M19.5569 178.064C19.5378 179.275 20.4936 180.271 21.6789 180.291C22.8641 180.31 23.8391 179.334 23.8582 178.123C23.8773 176.912 22.9214 175.915 21.7362 175.896C20.551 175.876 19.576 176.853 19.5569 178.064Z" fill="#E1D1C2"/>
<path d="M0.210731 177.83C0.191614 179.041 1.14742 180.037 2.33266 180.056C3.5179 180.076 4.49288 179.099 4.512 177.888C4.53111 176.677 3.57525 175.681 2.39001 175.661C1.20477 175.642 0.229848 176.619 0.210731 177.83Z" fill="#E1D1C2"/>
<path d="M193.404 197.773C193.385 198.984 194.341 199.98 195.526 200C196.712 200.019 197.686 199.043 197.706 197.832C197.725 196.621 196.769 195.624 195.584 195.605C194.398 195.585 193.423 196.562 193.404 197.773Z" fill="#E1D1C2"/>
<path d="M174.077 197.539C174.058 198.75 175.014 199.746 176.199 199.765C177.385 199.785 178.36 198.808 178.379 197.597C178.398 196.386 177.442 195.39 176.257 195.37C175.052 195.351 174.077 196.327 174.077 197.539Z" fill="#E1D1C2"/>
<path d="M154.731 197.304C154.712 198.515 155.668 199.511 156.853 199.531C158.038 199.531 159.013 198.574 159.033 197.363C159.052 196.152 158.096 195.156 156.91 195.136C155.706 195.116 154.75 196.093 154.731 197.304Z" fill="#E1D1C2"/>
<path d="M135.385 197.07C135.366 198.281 136.322 199.277 137.507 199.297C138.692 199.316 139.667 198.339 139.686 197.128C139.705 195.917 138.75 194.921 137.564 194.902C136.379 194.882 135.404 195.859 135.385 197.07Z" fill="#E1D1C2"/>
<path d="M116.039 196.816C116.02 198.027 116.976 199.023 118.161 199.043C119.346 199.062 120.321 198.086 120.34 196.874C120.359 195.663 119.403 194.667 118.218 194.648C117.033 194.648 116.058 195.605 116.039 196.816Z" fill="#E1D1C2"/>
<path d="M96.712 196.581C96.6928 197.793 97.6486 198.789 98.8339 198.808C100.019 198.828 100.994 197.851 101.013 196.64C101.032 195.429 100.077 194.433 98.8913 194.413C97.7061 194.394 96.7311 195.37 96.712 196.581Z" fill="#E1D1C2"/>
<path d="M77.3658 196.347C77.3466 197.558 78.3025 198.554 79.4877 198.574C80.6729 198.593 81.6479 197.617 81.667 196.406C81.6861 195.195 80.7303 194.198 79.5451 194.179C78.3599 194.159 77.3849 195.136 77.3658 196.347Z" fill="#E1D1C2"/>
<path d="M58.0389 196.113C58.0197 197.324 58.9755 198.32 60.1608 198.339C61.346 198.359 62.321 197.382 62.3401 196.171C62.3592 194.96 61.4034 193.964 60.2182 193.944C59.0138 193.925 58.0389 194.902 58.0389 196.113Z" fill="#E1D1C2"/>
<path d="M38.6927 195.859C38.6735 197.07 39.6294 198.066 40.8146 198.086C41.9998 198.105 42.9748 197.128 42.9939 195.917C43.013 194.706 42.0572 193.71 40.8719 193.691C39.6676 193.691 38.7118 194.648 38.6927 195.859Z" fill="#E1D1C2"/>
<path d="M19.3465 195.624C19.3274 196.835 20.2832 197.832 21.4685 197.851C22.6537 197.871 23.6286 196.894 23.6477 195.683C23.6669 194.472 22.711 193.476 21.5258 193.456C20.3406 193.437 19.3656 194.413 19.3465 195.624Z" fill="#E1D1C2"/>
<path d="M0.000281826 195.39C-0.0188349 196.601 0.937032 197.597 2.12227 197.617C3.30751 197.636 4.28243 196.66 4.30155 195.449C4.32066 194.237 3.36486 193.241 2.17962 193.222C0.99438 193.202 0.0193986 194.179 0.000281826 195.39Z" fill="#E1D1C2"/>
</svg>
