<svg width="375" height="54" viewBox="0 0 375 54" fill="none" xmlns="http://www.w3.org/2000/svg">
<g clip-path="url(#clip0_256_6857)">
<path d="M375 52.0112C361.456 53.1169 325.191 54.0417 288.48 48.8951C242.591 42.4617 203.155 34.8222 137.906 38.2399C72.6578 41.6576 48.5182 45.8794 9.99572e-06 42.0596" stroke="#BF9D7D" stroke-opacity="0.4" stroke-width="0.5"/>
<path d="M375 52.0112C361.456 53.1169 325.191 54.0417 288.48 48.8951C242.591 42.4617 203.155 34.8222 137.906 38.2399C72.6578 41.6576 48.5182 45.8794 9.99572e-06 42.0596" stroke="black" stroke-opacity="0.2" stroke-width="0.5"/>
<path d="M375 44.5322C361.456 45.6379 325.191 46.5627 288.48 41.4161C242.591 34.9827 203.155 27.3431 137.906 30.7609C72.6578 34.1786 48.5182 38.4004 9.99572e-06 34.5806" stroke="#BF9D7D" stroke-opacity="0.4" stroke-width="0.5"/>
<path d="M375 44.5322C361.456 45.6379 325.191 46.5627 288.48 41.4161C242.591 34.9827 203.155 27.3431 137.906 30.7609C72.6578 34.1786 48.5182 38.4004 9.99572e-06 34.5806" stroke="black" stroke-opacity="0.2" stroke-width="0.5"/>
<path d="M375 37.0532C361.456 38.1589 325.191 39.0837 288.48 33.9371C242.591 27.5037 203.155 19.8641 137.906 23.2819C72.6578 26.6996 48.5182 30.9214 9.99572e-06 27.1016" stroke="#BF9D7D" stroke-opacity="0.4" stroke-width="0.5"/>
<path d="M375 37.0532C361.456 38.1589 325.191 39.0837 288.48 33.9371C242.591 27.5037 203.155 19.8641 137.906 23.2819C72.6578 26.6996 48.5182 30.9214 9.99572e-06 27.1016" stroke="black" stroke-opacity="0.2" stroke-width="0.5"/>
<path d="M375 29.5742C361.456 30.6799 325.191 31.6047 288.48 26.4581C242.591 20.0247 203.155 12.3851 137.906 15.8028C72.6578 19.2206 48.5182 23.4424 9.99572e-06 19.6226" stroke="#BF9D7D" stroke-opacity="0.4" stroke-width="0.5"/>
<path d="M375 29.5742C361.456 30.6799 325.191 31.6047 288.48 26.4581C242.591 20.0247 203.155 12.3851 137.906 15.8028C72.6578 19.2206 48.5182 23.4424 9.99572e-06 19.6226" stroke="black" stroke-opacity="0.2" stroke-width="0.5"/>
<path d="M375 22.0952C361.456 23.2009 325.191 24.1257 288.48 18.9791C242.591 12.5457 203.155 4.90614 137.906 8.32385C72.6578 11.7416 48.5182 15.9634 9.99572e-06 12.1436" stroke="#BF9D7D" stroke-opacity="0.4" stroke-width="0.5"/>
<path d="M375 22.0952C361.456 23.2009 325.191 24.1257 288.48 18.9791C242.591 12.5457 203.155 4.90614 137.906 8.32385C72.6578 11.7416 48.5182 15.9634 9.99572e-06 12.1436" stroke="black" stroke-opacity="0.2" stroke-width="0.5"/>
<path d="M375 14.6164C361.456 15.7221 325.191 16.6469 288.48 11.5003C242.591 5.06693 203.155 -2.57265 137.906 0.845055C72.6578 4.26276 48.5182 8.48462 9.99572e-06 4.66484" stroke="#BF9D7D" stroke-opacity="0.4" stroke-width="0.5"/>
<path d="M375 14.6164C361.456 15.7221 325.191 16.6469 288.48 11.5003C242.591 5.06693 203.155 -2.57265 137.906 0.845055C72.6578 4.26276 48.5182 8.48462 9.99572e-06 4.66484" stroke="black" stroke-opacity="0.2" stroke-width="0.5"/>
</g>
<defs>
<clipPath id="clip0_256_6857">
<rect width="375" height="54" fill="white"/>
</clipPath>
</defs>
</svg>
